Ripper By.........................CurrentHD




General                          : Bad Boys II (2003)HDTVRip{Dual audio}[Eng Hindi]Current_HD
Format                           : AVI
Format/Info                      : Audio Video Interleave
Format profile                   : OpenDML
File size                        : 1 016 MiB
Duration                         : 2h 20mn
Overall bit rate                 : 1 009 Kbps
Writing application              : AVI-Mux GUI 1.17.8.3,

Video
ID                               : 0
Format                           : MPEG-4 Visual
Format profile                   : Advanced Simple@L5
Format settings, BVOP            : Yes
Format settings, QPel            : No
Format settings, GMC             : No warppoints
Format settings, Matrix          : Default (H.263)
Codec ID                         : DX50
Codec ID/Hint                    : DivX 5
Duration                         : 2h 20mn
Bit rate                         : 802 Kbps
Width                            : 672 pixels
Height                           : 280 pixels
Display aspect ratio             : 2.40:1
Frame rate                       : 25.000 fps
Color space                      : YUV
Chroma subsampling               : 4:2:0
Bit depth                        : 8 bits
Scan type                        : Progressive
Bits/(Pixel*Frame)               : 0.170
Stream size                      : 807 MiB (79%)
Writing library                  : XviD 1.1.0 (UTC 2005-11-22)

Audio #1
ID                               : 1
Format                           : MPEG Audio
Format version                   : Version 1
Format profile                   : Layer 3
Mode                             : Joint stereo
Mode extension                   : MS Stereo
Codec ID                         : 55
Codec ID/Hint                    : MP3
Duration                         : 2h 20mn
Bit rate mode                    : Constant
Bit rate                         : 80.0 Kbps
Channel(s)                       : 2 channels
Sampling rate                    : 48.0 KHz
Stream size                      : 80.5 MiB (8%)
Alignment                        : Aligned on interleaves
Interleave, duration             : 823 ms (20.58 video frames)
Interleave, preload duration     : 216 ms
Writing library                  : LAME3.97 (beta)

Audio #2
ID                               : 2
Format                           : MPEG Audio
Format version                   : Version 1
Format profile                   : Layer 3
Mode                             : Joint stereo
Codec ID                         : 55
Codec ID/Hint                    : MP3
Duration                         : 2h 15mn
Bit rate mode                    : Constant
Bit rate                         : 128 Kbps
Channel(s)                       : 2 channels
Sampling rate                    : 48.0 KHz
Stream size                      : 124 MiB (12%)
Alignment                        : Aligned on interleaves
Interleave, duration             : 850 ms (21.24 video frames)
Interleave, preload duration     : 216 ms
Title                            : CurrentHD
Writing library                  : LAME3.97


SCREENSHOT
 
http://img59.imageshack.us/img59/4687/vlcsnap2010121105h08m05.png 
http://img257.imageshack.us/img257/1953/vlcsnap2010121105h08m13.png 
http://img691.imageshack.us/img691/8731/vlcsnap2010121105h08m29.png 
http://img839.imageshack.us/img839/1985/vlcsnap2010121105h09m12.png 
http://img140.imageshack.us/img140/2949/vlcsnap2010121105h09m30.png 
http://img684.imageshack.us/img684/4303/vlcsnap2010121105h10m09.png



